M48
; DRILL file {KiCad 9.0.7} date 2026-03-01T15:24:01+0100
; FORMAT={-:-/ absolute / metric / decimal}
; #@! TF.CreationDate,2026-03-01T15:24:01+01:00
; #@! TF.GenerationSoftware,Kicad,Pcbnew,9.0.7
; #@! TF.FileFunction,Plated,1,2,PTH
FMAT,2
METRIC
; #@! TA.AperFunction,Plated,PTH,ComponentDrill
T1C0.700
; #@! TA.AperFunction,Plated,PTH,ComponentDrill
T2C0.750
; #@! TA.AperFunction,Plated,PTH,ComponentDrill
T3C0.800
; #@! TA.AperFunction,Plated,PTH,ComponentDrill
T4C0.950
; #@! TA.AperFunction,Plated,PTH,ViaDrill
T5C1.000
; #@! TA.AperFunction,Plated,PTH,ComponentDrill
T6C1.100
; #@! TA.AperFunction,Plated,PTH,ComponentDrill
T7C1.200
; #@! TA.AperFunction,Plated,PTH,ComponentDrill
T8C2.700
%
G90
G05
T1
X162.92Y-81.85
X162.92Y-85.0
X168.0Y-81.85
X168.0Y-85.0
X197.51Y-127.0
X202.59Y-127.0
T2
X138.0Y-91.0
X138.0Y-92.27
X138.0Y-93.54
T3
X173.1Y-39.5
X173.1Y-42.04
X173.1Y-44.58
X173.1Y-47.12
X173.1Y-49.66
X173.1Y-52.2
X173.1Y-54.74
X173.1Y-57.28
X173.1Y-59.82
X173.1Y-62.36
X173.1Y-64.9
X173.1Y-67.44
X173.1Y-69.98
X173.1Y-72.52
X173.1Y-75.06
X173.1Y-77.6
X173.1Y-80.14
X173.1Y-82.68
X173.1Y-85.22
X198.496Y-82.677
X198.496Y-85.217
X198.5Y-39.5
X198.5Y-42.04
X198.5Y-44.58
X198.5Y-47.12
X198.5Y-49.66
X198.5Y-52.2
X198.5Y-54.74
X198.5Y-57.28
X198.5Y-59.82
X198.5Y-62.36
X198.5Y-64.9
X198.5Y-67.44
X198.5Y-69.98
X198.5Y-72.52
X198.5Y-75.06
X198.5Y-77.6
X198.5Y-80.14
X202.46Y-57.5
X202.46Y-60.0
X202.46Y-65.0
X202.46Y-67.5
X202.46Y-77.5
X202.46Y-90.0
X202.46Y-93.0
X202.46Y-96.0
X202.46Y-99.0
X205.0Y-57.5
X205.0Y-60.0
X205.0Y-65.0
X205.0Y-67.5
X205.0Y-77.5
X205.0Y-90.0
X205.0Y-93.0
X205.0Y-96.0
X205.0Y-99.0
T4
X142.0Y-127.0
X144.5Y-127.0
X145.0Y-98.0
X147.0Y-127.0
X147.5Y-98.0
X149.5Y-127.0
X150.0Y-98.0
X152.0Y-127.0
X152.5Y-98.0
X154.5Y-127.0
X155.0Y-98.0
X157.0Y-127.0
X157.5Y-98.0
X159.5Y-127.0
X160.0Y-98.0
X162.5Y-98.0
X164.5Y-35.0
X164.5Y-37.5
X164.5Y-40.0
X164.5Y-42.5
X164.5Y-45.0
X164.5Y-47.5
X164.5Y-50.0
X164.5Y-52.5
X164.5Y-59.0
X164.5Y-61.5
X164.5Y-64.0
X164.5Y-66.5
X164.5Y-69.0
X164.5Y-71.5
X164.5Y-74.0
X164.5Y-76.5
X169.5Y-98.0
X171.0Y-127.0
X172.0Y-98.0
X173.5Y-127.0
X174.5Y-98.0
X176.0Y-127.0
X177.0Y-98.0
X178.5Y-127.0
X179.5Y-98.0
X181.0Y-127.0
X182.0Y-98.0
X183.5Y-127.0
X184.5Y-98.0
X186.0Y-127.0
X187.0Y-98.0
X188.5Y-127.0
T5
X176.0Y-88.0
X181.0Y-61.0
X181.0Y-78.0
T6
X153.0Y-77.92
X153.0Y-88.08
T7
X139.625Y-119.075
X142.025Y-119.075
X144.625Y-119.075
X147.225Y-119.075
X149.625Y-119.075
X152.025Y-119.075
X154.825Y-119.075
X155.0Y-42.2
X155.0Y-44.7
X155.0Y-47.4
X155.0Y-49.8
X155.0Y-52.3
X155.0Y-55.0
X155.0Y-57.4
X155.0Y-60.0
X157.325Y-119.075
X159.825Y-119.075
X162.625Y-119.075
X165.125Y-119.075
X167.625Y-119.075
X170.025Y-119.075
X172.625Y-119.075
X175.125Y-119.075
X177.725Y-119.075
X180.225Y-119.075
X182.725Y-119.075
X185.325Y-119.075
X188.125Y-119.075
X197.125Y-103.875
X197.125Y-106.375
X197.125Y-108.975
X197.125Y-111.575
X197.125Y-114.175
X197.125Y-116.675
X197.125Y-119.075
X199.625Y-103.875
X199.625Y-106.375
X199.625Y-108.975
X199.625Y-111.575
X199.625Y-114.175
X199.625Y-116.675
X199.625Y-119.075
T8
X133.0Y-81.0
X133.0Y-86.0
X133.0Y-98.0
X133.0Y-103.0
X140.0Y-81.0
X140.0Y-86.0
X147.0Y-81.0
X147.0Y-86.0
M30
