%TF.GenerationSoftware,KiCad,Pcbnew,9.0.7*%
%TF.CreationDate,2026-03-01T15:24:03+01:00*%
%TF.ProjectId,esp32-switch,65737033-322d-4737-9769-7463682e6b69,rev?*%
%TF.SameCoordinates,Original*%
%TF.FileFunction,Copper,L2,Bot*%
%TF.FilePolarity,Positive*%
%FSLAX46Y46*%
G04 Gerber Fmt 4.6, Leading zero omitted, Abs format (unit mm)*
G04 Created by KiCad (PCBNEW 9.0.7) date 2026-03-01 15:24:03*
%MOMM*%
%LPD*%
G01*
G04 APERTURE LIST*
G04 Aperture macros list*
%AMRoundRect*
0 Rectangle with rounded corners*
0 $1 Rounding radius*
0 $2 $3 $4 $5 $6 $7 $8 $9 X,Y pos of 4 corners*
0 Add a 4 corners polygon primitive as box body*
4,1,4,$2,$3,$4,$5,$6,$7,$8,$9,$2,$3,0*
0 Add four circle primitives for the rounded corners*
1,1,$1+$1,$2,$3*
1,1,$1+$1,$4,$5*
1,1,$1+$1,$6,$7*
1,1,$1+$1,$8,$9*
0 Add four rect primitives between the rounded corners*
20,1,$1+$1,$2,$3,$4,$5,0*
20,1,$1+$1,$4,$5,$6,$7,0*
20,1,$1+$1,$6,$7,$8,$9,0*
20,1,$1+$1,$8,$9,$2,$3,0*%
G04 Aperture macros list end*
%TA.AperFunction,ComponentPad*%
%ADD10RoundRect,0.760000X-1.140000X1.140000X-1.140000X-1.140000X1.140000X-1.140000X1.140000X1.140000X0*%
%TD*%
%TA.AperFunction,ComponentPad*%
%ADD11C,4.000000*%
%TD*%
%TA.AperFunction,ComponentPad*%
%ADD12RoundRect,0.250000X-0.725000X0.600000X-0.725000X-0.600000X0.725000X-0.600000X0.725000X0.600000X0*%
%TD*%
%TA.AperFunction,ComponentPad*%
%ADD13O,1.950000X1.700000*%
%TD*%
%TA.AperFunction,ComponentPad*%
%ADD14C,1.400000*%
%TD*%
%TA.AperFunction,ComponentPad*%
%ADD15C,2.000000*%
%TD*%
%TA.AperFunction,ComponentPad*%
%ADD16R,2.000000X2.000000*%
%TD*%
%TA.AperFunction,ComponentPad*%
%ADD17C,1.905000*%
%TD*%
%TA.AperFunction,ComponentPad*%
%ADD18C,1.900000*%
%TD*%
%TA.AperFunction,ComponentPad*%
%ADD19RoundRect,0.250000X0.600000X0.725000X-0.600000X0.725000X-0.600000X-0.725000X0.600000X-0.725000X0*%
%TD*%
%TA.AperFunction,ComponentPad*%
%ADD20O,1.700000X1.950000*%
%TD*%
%TA.AperFunction,ComponentPad*%
%ADD21R,1.500000X1.050000*%
%TD*%
%TA.AperFunction,ComponentPad*%
%ADD22O,1.500000X1.050000*%
%TD*%
%TA.AperFunction,ComponentPad*%
%ADD23C,1.800000*%
%TD*%
%TA.AperFunction,ComponentPad*%
%ADD24RoundRect,0.249999X0.850001X-0.850001X0.850001X0.850001X-0.850001X0.850001X-0.850001X-0.850001X0*%
%TD*%
%TA.AperFunction,ComponentPad*%
%ADD25C,2.200000*%
%TD*%
%TA.AperFunction,ComponentPad*%
%ADD26R,2.000000X1.200000*%
%TD*%
%TA.AperFunction,ComponentPad*%
%ADD27O,2.000000X1.200000*%
%TD*%
%TA.AperFunction,ViaPad*%
%ADD28C,2.000000*%
%TD*%
%TA.AperFunction,Conductor*%
%ADD29C,1.500000*%
%TD*%
%TA.AperFunction,Conductor*%
%ADD30C,1.000000*%
%TD*%
%TA.AperFunction,Conductor*%
%ADD31C,2.000000*%
%TD*%
G04 APERTURE END LIST*
D10*
%TO.P,J8,1,Pin_1*%
%TO.N,Net-(J17-Pin_2)*%
X133000000Y-98000000D03*
D11*
%TO.P,J8,2,Pin_2*%
%TO.N,Net-(J1-Pin_2)*%
X133000000Y-103000000D03*
%TD*%
D12*
%TO.P,J5,1,Pin_1*%
%TO.N,Net-(J1-Pin_1)*%
X164500000Y-59000000D03*
D13*
%TO.P,J5,2,Pin_2*%
%TO.N,Net-(J1-Pin_2)*%
X164500000Y-61500000D03*
%TO.P,J5,3,Pin_3*%
%TO.N,Net-(J5-Pin_3)*%
X164500000Y-64000000D03*
%TO.P,J5,4,Pin_4*%
%TO.N,Net-(J5-Pin_4)*%
X164500000Y-66500000D03*
%TO.P,J5,5,Pin_5*%
%TO.N,Net-(J5-Pin_5)*%
X164500000Y-69000000D03*
%TO.P,J5,6,Pin_6*%
%TO.N,unconnected-(J5-Pin_6-Pad6)*%
X164500000Y-71500000D03*
%TO.P,J5,7,Pin_7*%
%TO.N,unconnected-(J5-Pin_7-Pad7)*%
X164500000Y-74000000D03*
%TO.P,J5,8,Pin_8*%
%TO.N,unconnected-(J5-Pin_8-Pad8)*%
X164500000Y-76500000D03*
%TD*%
D14*
%TO.P,R1,1*%
%TO.N,Net-(J17-Pin_1)*%
X162920000Y-81850000D03*
%TO.P,R1,2*%
%TO.N,Net-(U1-SENSOR_VP{slash}GPIO36{slash}ADC1_CH0)*%
X168000000Y-81850000D03*
%TD*%
%TO.P,JP9,1,A*%
%TO.N,Net-(J1-Pin_2)*%
X205000000Y-57500000D03*
%TO.P,JP9,2,B*%
%TO.N,Net-(JP9-B)*%
X202460000Y-57500000D03*
%TD*%
D10*
%TO.P,J7,1,Pin_1*%
%TO.N,Net-(D1-A)*%
X147000000Y-81000000D03*
D11*
%TO.P,J7,2,Pin_2*%
%TO.N,Net-(D1-K)*%
X147000000Y-86000000D03*
%TD*%
D15*
%TO.P,U3,1,ITB*%
%TO.N,Net-(U3-ITB-Pad1)*%
X199625000Y-103875000D03*
%TO.P,U3,2,ITA*%
%TO.N,Net-(U3-ITA-Pad2)*%
X199625000Y-106375000D03*
%TO.P,U3,3,RST*%
%TO.N,Net-(J1-Pin_1)*%
X199625000Y-108975000D03*
%TO.P,U3,4,SDA*%
%TO.N,Net-(U1-GPIO21)*%
X199625000Y-111575000D03*
%TO.P,U3,5,SCL*%
%TO.N,Net-(U1-GPIO22)*%
X199625000Y-114175000D03*
%TO.P,U3,6,GND*%
%TO.N,Net-(J1-Pin_2)*%
X199625000Y-116675000D03*
D16*
%TO.P,U3,7,VCC*%
%TO.N,Net-(J1-Pin_1)*%
X199625000Y-119075000D03*
D15*
%TO.P,U3,8,ITB*%
%TO.N,Net-(U3-ITB-Pad1)*%
X197125000Y-103875000D03*
%TO.P,U3,9,ITA*%
%TO.N,Net-(U3-ITA-Pad2)*%
X197125000Y-106375000D03*
%TO.P,U3,10,RST*%
%TO.N,Net-(J1-Pin_1)*%
X197125000Y-108975000D03*
%TO.P,U3,11,SDA*%
%TO.N,Net-(U1-GPIO21)*%
X197125000Y-111575000D03*
D17*
%TO.P,U3,12,SCL*%
%TO.N,Net-(U1-GPIO22)*%
X197125000Y-114175000D03*
D15*
%TO.P,U3,13,GND*%
%TO.N,Net-(J1-Pin_2)*%
X197125000Y-116675000D03*
D17*
%TO.P,U3,14,VCC*%
%TO.N,Net-(J1-Pin_1)*%
X197125000Y-119075000D03*
D15*
%TO.P,U3,15,VCC*%
X188125000Y-119075000D03*
%TO.P,U3,16,GND*%
%TO.N,Net-(J1-Pin_2)*%
X185325000Y-119075000D03*
D17*
%TO.P,U3,17,PB7*%
%TO.N,Net-(J1-Pin_3)*%
X182725000Y-119075000D03*
D18*
%TO.P,U3,18,PB6*%
%TO.N,Net-(J1-Pin_4)*%
X180225000Y-119075000D03*
D15*
%TO.P,U3,19,PB5*%
%TO.N,Net-(J2-Pin_3)*%
X177725000Y-119075000D03*
%TO.P,U3,20,PB4*%
%TO.N,Net-(J2-Pin_4)*%
X175125000Y-119075000D03*
%TO.P,U3,21,PB3*%
%TO.N,Net-(J1-Pin_5)*%
X172625000Y-119075000D03*
%TO.P,U3,22,PB2*%
%TO.N,Net-(J1-Pin_6)*%
X170025000Y-119075000D03*
%TO.P,U3,23,PB1*%
%TO.N,Net-(J2-Pin_5)*%
X167625000Y-119075000D03*
D16*
%TO.P,U3,24,PB0*%
%TO.N,Net-(J2-Pin_6)*%
X165125000Y-119075000D03*
%TO.P,U3,25,VCC*%
%TO.N,Net-(J1-Pin_1)*%
X162625000Y-119075000D03*
D15*
%TO.P,U3,26,GND*%
%TO.N,Net-(J1-Pin_2)*%
X159825000Y-119075000D03*
%TO.P,U3,27,PA0*%
%TO.N,Net-(J3-Pin_3)*%
X157325000Y-119075000D03*
%TO.P,U3,28,PA1*%
%TO.N,Net-(J3-Pin_4)*%
X154825000Y-119075000D03*
%TO.P,U3,29,PA2*%
%TO.N,Net-(J3-Pin_5)*%
X152025000Y-119075000D03*
%TO.P,U3,30,PA3*%
%TO.N,Net-(J3-Pin_6)*%
X149625000Y-119075000D03*
%TO.P,U3,31,PA4*%
%TO.N,Net-(J4-Pin_3)*%
X147225000Y-119075000D03*
%TO.P,U3,32,PA5*%
%TO.N,Net-(J4-Pin_4)*%
X144625000Y-119075000D03*
%TO.P,U3,33,PA6*%
%TO.N,Net-(J4-Pin_5)*%
X142025000Y-119075000D03*
%TO.P,U3,34,PA7*%
%TO.N,Net-(J4-Pin_6)*%
X139625000Y-119075000D03*
%TD*%
D19*
%TO.P,J1,1,Pin_1*%
%TO.N,Net-(J1-Pin_1)*%
X187000000Y-98000000D03*
D20*
%TO.P,J1,2,Pin_2*%
%TO.N,Net-(J1-Pin_2)*%
X184500000Y-98000000D03*
%TO.P,J1,3,Pin_3*%
%TO.N,Net-(J1-Pin_3)*%
X182000000Y-98000000D03*
%TO.P,J1,4,Pin_4*%
%TO.N,Net-(J1-Pin_4)*%
X179500000Y-98000000D03*
%TO.P,J1,5,Pin_5*%
%TO.N,Net-(J1-Pin_5)*%
X177000000Y-98000000D03*
%TO.P,J1,6,Pin_6*%
%TO.N,Net-(J1-Pin_6)*%
X174500000Y-98000000D03*
%TO.P,J1,7,Pin_7*%
%TO.N,unconnected-(J1-Pin_7-Pad7)*%
X172000000Y-98000000D03*
%TO.P,J1,8,Pin_8*%
%TO.N,unconnected-(J1-Pin_8-Pad8)*%
X169500000Y-98000000D03*
%TD*%
D21*
%TO.P,Q1,1,C*%
%TO.N,Net-(D1-A)*%
X138000000Y-91000000D03*
D22*
%TO.P,Q1,2,B*%
%TO.N,Net-(Q1-B)*%
X138000000Y-92270000D03*
%TO.P,Q1,3,E*%
%TO.N,Net-(J1-Pin_2)*%
X138000000Y-93540000D03*
%TD*%
D19*
%TO.P,J3,1,Pin_1*%
%TO.N,Net-(J1-Pin_1)*%
X162500000Y-98000000D03*
D20*
%TO.P,J3,2,Pin_2*%
%TO.N,Net-(J1-Pin_2)*%
X160000000Y-98000000D03*
%TO.P,J3,3,Pin_3*%
%TO.N,Net-(J3-Pin_3)*%
X157500000Y-98000000D03*
%TO.P,J3,4,Pin_4*%
%TO.N,Net-(J3-Pin_4)*%
X155000000Y-98000000D03*
%TO.P,J3,5,Pin_5*%
%TO.N,Net-(J3-Pin_5)*%
X152500000Y-98000000D03*
%TO.P,J3,6,Pin_6*%
%TO.N,Net-(J3-Pin_6)*%
X150000000Y-98000000D03*
%TO.P,J3,7,Pin_7*%
%TO.N,unconnected-(J3-Pin_7-Pad7)*%
X147500000Y-98000000D03*
%TO.P,J3,8,Pin_8*%
%TO.N,unconnected-(J3-Pin_8-Pad8)*%
X145000000Y-98000000D03*
%TD*%
D10*
%TO.P,J17,1,Pin_1*%
%TO.N,Net-(J17-Pin_1)*%
X133000000Y-81000000D03*
D11*
%TO.P,J17,2,Pin_2*%
%TO.N,Net-(J17-Pin_2)*%
X133000000Y-86000000D03*
%TD*%
D23*
%TO.P,U2,1,3v3*%
%TO.N,unconnected-(U2-3v3-Pad1)*%
X155000000Y-42200000D03*
%TO.P,U2,2,EN*%
%TO.N,unconnected-(U2-EN-Pad2)*%
X155000000Y-44700000D03*
%TO.P,U2,3,GND*%
%TO.N,Net-(J1-Pin_2)*%
X155000000Y-47400000D03*
%TO.P,U2,4,5v*%
%TO.N,Net-(J11-Pin_1)*%
X155000000Y-49800000D03*
%TO.P,U2,5,GND*%
%TO.N,Net-(J1-Pin_2)*%
X155000000Y-52300000D03*
%TO.P,U2,6,BAT*%
%TO.N,Net-(J17-Pin_1)*%
X155000000Y-55000000D03*
%TO.P,U2,7,GND*%
%TO.N,Net-(J1-Pin_2)*%
X155000000Y-57400000D03*
%TO.P,U2,8,USB*%
%TO.N,unconnected-(U2-USB-Pad8)*%
X155000000Y-60000000D03*
%TD*%
D19*
%TO.P,J4,1,Pin_1*%
%TO.N,Net-(J1-Pin_1)*%
X159500000Y-127000000D03*
D20*
%TO.P,J4,2,Pin_2*%
%TO.N,Net-(J1-Pin_2)*%
X157000000Y-127000000D03*
%TO.P,J4,3,Pin_3*%
%TO.N,Net-(J4-Pin_3)*%
X154500000Y-127000000D03*
%TO.P,J4,4,Pin_4*%
%TO.N,Net-(J4-Pin_4)*%
X152000000Y-127000000D03*
%TO.P,J4,5,Pin_5*%
%TO.N,Net-(J4-Pin_5)*%
X149500000Y-127000000D03*
%TO.P,J4,6,Pin_6*%
%TO.N,Net-(J4-Pin_6)*%
X147000000Y-127000000D03*
%TO.P,J4,7,Pin_7*%
%TO.N,unconnected-(J4-Pin_7-Pad7)*%
X144500000Y-127000000D03*
%TO.P,J4,8,Pin_8*%
%TO.N,unconnected-(J4-Pin_8-Pad8)*%
X142000000Y-127000000D03*
%TD*%
D10*
%TO.P,J11,1,Pin_1*%
%TO.N,Net-(J11-Pin_1)*%
X140000000Y-81000000D03*
D11*
%TO.P,J11,2,Pin_2*%
%TO.N,Net-(D1-K)*%
X140000000Y-86000000D03*
%TD*%
D14*
%TO.P,JP4,1,A*%
%TO.N,Net-(JP4-A)*%
X202460000Y-77500000D03*
%TO.P,JP4,2,B*%
%TO.N,Net-(J1-Pin_2)*%
X205000000Y-77500000D03*
%TD*%
D24*
%TO.P,D1,1,K*%
%TO.N,Net-(D1-K)*%
X153000000Y-88080000D03*
D25*
%TO.P,D1,2,A*%
%TO.N,Net-(D1-A)*%
X153000000Y-77920000D03*
%TD*%
D14*
%TO.P,JP7,1,A*%
%TO.N,Net-(J1-Pin_2)*%
X205000000Y-65000000D03*
%TO.P,JP7,2,B*%
%TO.N,Net-(JP7-B)*%
X202460000Y-65000000D03*
%TD*%
D12*
%TO.P,J6,1,Pin_1*%
%TO.N,Net-(J1-Pin_1)*%
X164500000Y-35000000D03*
D13*
%TO.P,J6,2,Pin_2*%
%TO.N,Net-(J1-Pin_2)*%
X164500000Y-37500000D03*
%TO.P,J6,3,Pin_3*%
%TO.N,Net-(J6-Pin_3)*%
X164500000Y-40000000D03*
%TO.P,J6,4,Pin_4*%
%TO.N,Net-(J6-Pin_4)*%
X164500000Y-42500000D03*
%TO.P,J6,5,Pin_5*%
%TO.N,Net-(J6-Pin_5)*%
X164500000Y-45000000D03*
%TO.P,J6,6,Pin_6*%
%TO.N,unconnected-(J6-Pin_6-Pad6)*%
X164500000Y-47500000D03*
%TO.P,J6,7,Pin_7*%
%TO.N,unconnected-(J6-Pin_7-Pad7)*%
X164500000Y-50000000D03*
%TO.P,J6,8,Pin_8*%
%TO.N,unconnected-(J6-Pin_8-Pad8)*%
X164500000Y-52500000D03*
%TD*%
D14*
%TO.P,R3,1*%
%TO.N,Net-(Q1-B)*%
X197510000Y-127000000D03*
%TO.P,R3,2*%
%TO.N,Net-(U1-ADC2_CH0{slash}GPIO4)*%
X202590000Y-127000000D03*
%TD*%
%TO.P,R2,1*%
%TO.N,Net-(U1-SENSOR_VP{slash}GPIO36{slash}ADC1_CH0)*%
X168000000Y-85000000D03*
%TO.P,R2,2*%
%TO.N,Net-(J1-Pin_2)*%
X162920000Y-85000000D03*
%TD*%
%TO.P,JP1,1,A*%
%TO.N,Net-(JP1-A)*%
X202460000Y-96000000D03*
%TO.P,JP1,2,B*%
%TO.N,Net-(J1-Pin_2)*%
X205000000Y-96000000D03*
%TD*%
%TO.P,JP5,1,A*%
%TO.N,Net-(JP5-A)*%
X202460000Y-90000000D03*
%TO.P,JP5,2,B*%
%TO.N,Net-(J1-Pin_2)*%
X205000000Y-90000000D03*
%TD*%
D19*
%TO.P,J2,1,Pin_1*%
%TO.N,Net-(J1-Pin_1)*%
X188500000Y-127000000D03*
D20*
%TO.P,J2,2,Pin_2*%
%TO.N,Net-(J1-Pin_2)*%
X186000000Y-127000000D03*
%TO.P,J2,3,Pin_3*%
%TO.N,Net-(J2-Pin_3)*%
X183500000Y-127000000D03*
%TO.P,J2,4,Pin_4*%
%TO.N,Net-(J2-Pin_4)*%
X181000000Y-127000000D03*
%TO.P,J2,5,Pin_5*%
%TO.N,Net-(J2-Pin_5)*%
X178500000Y-127000000D03*
%TO.P,J2,6,Pin_6*%
%TO.N,Net-(J2-Pin_6)*%
X176000000Y-127000000D03*
%TO.P,J2,7,Pin_7*%
%TO.N,unconnected-(J2-Pin_7-Pad7)*%
X173500000Y-127000000D03*
%TO.P,J2,8,Pin_8*%
%TO.N,unconnected-(J2-Pin_8-Pad8)*%
X171000000Y-127000000D03*
%TD*%
D14*
%TO.P,JP2,1,A*%
%TO.N,Net-(JP2-A)*%
X202460000Y-99000000D03*
%TO.P,JP2,2,B*%
%TO.N,Net-(J1-Pin_2)*%
X205000000Y-99000000D03*
%TD*%
%TO.P,JP8,1,A*%
%TO.N,Net-(J1-Pin_2)*%
X205000000Y-60000000D03*
%TO.P,JP8,2,B*%
%TO.N,Net-(JP8-B)*%
X202460000Y-60000000D03*
%TD*%
%TO.P,JP6,1,A*%
%TO.N,Net-(J1-Pin_2)*%
X205000000Y-67500000D03*
%TO.P,JP6,2,B*%
%TO.N,Net-(JP6-B)*%
X202460000Y-67500000D03*
%TD*%
%TO.P,JP3,1,A*%
%TO.N,Net-(JP3-A)*%
X202460000Y-93000000D03*
%TO.P,JP3,2,B*%
%TO.N,Net-(J1-Pin_2)*%
X205000000Y-93000000D03*
%TD*%
D26*
%TO.P,U1,1,3V3*%
%TO.N,Net-(J1-Pin_1)*%
X173100000Y-39500000D03*
D27*
%TO.P,U1,2,CHIP_PU*%
%TO.N,unconnected-(U1-CHIP_PU-Pad2)*%
X173100000Y-42040000D03*
%TO.P,U1,3,SENSOR_VP/GPIO36/ADC1_CH0*%
%TO.N,Net-(U1-SENSOR_VP{slash}GPIO36{slash}ADC1_CH0)*%
X173100000Y-44580000D03*
%TO.P,U1,4,SENSOR_VN/GPIO39/ADC1_CH3*%
%TO.N,unconnected-(U1-SENSOR_VN{slash}GPIO39{slash}ADC1_CH3-Pad4)*%
X173100000Y-47120000D03*
%TO.P,U1,5,VDET_1/GPIO34/ADC1_CH6*%
%TO.N,Net-(J6-Pin_3)*%
X173100000Y-49660000D03*
%TO.P,U1,6,VDET_2/GPIO35/ADC1_CH7*%
%TO.N,Net-(J6-Pin_4)*%
X173100000Y-52200000D03*
%TO.P,U1,7,32K_XP/GPIO32/ADC1_CH4*%
%TO.N,Net-(J5-Pin_3)*%
X173100000Y-54740000D03*
%TO.P,U1,8,32K_XN/GPIO33/ADC1_CH5*%
%TO.N,Net-(J5-Pin_4)*%
X173100000Y-57280000D03*
%TO.P,U1,9,DAC_1/ADC2_CH8/GPIO25*%
%TO.N,Net-(J6-Pin_5)*%
X173100000Y-59820000D03*
%TO.P,U1,10,DAC_2/ADC2_CH9/GPIO26*%
%TO.N,Net-(J5-Pin_5)*%
X173100000Y-62360000D03*
%TO.P,U1,11,ADC2_CH7/GPIO27*%
%TO.N,Net-(JP5-A)*%
X173100000Y-64900000D03*
%TO.P,U1,12,MTMS/GPIO14/ADC2_CH6*%
%TO.N,Net-(JP3-A)*%
X173100000Y-67440000D03*
%TO.P,U1,13,MTDI/GPIO12/ADC2_CH5*%
%TO.N,Net-(JP1-A)*%
X173100000Y-69980000D03*
%TO.P,U1,14,GND*%
%TO.N,Net-(J1-Pin_2)*%
X173100000Y-72520000D03*
%TO.P,U1,15,MTCK/GPIO13/ADC2_CH4*%
%TO.N,Net-(JP2-A)*%
X173100000Y-75060000D03*
%TO.P,U1,16,SD_DATA2/GPIO9*%
%TO.N,unconnected-(U1-SD_DATA2{slash}GPIO9-Pad16)*%
X173100000Y-77600000D03*
%TO.P,U1,17,SD_DATA3/GPIO10*%
%TO.N,unconnected-(U1-SD_DATA3{slash}GPIO10-Pad17)*%
X173100000Y-80140000D03*
%TO.P,U1,18,CMD*%
%TO.N,unconnected-(U1-CMD-Pad18)*%
X173100000Y-82680000D03*
%TO.P,U1,19,5V*%
%TO.N,Net-(D1-K)*%
X173100000Y-85220000D03*
%TO.P,U1,20,SD_CLK/GPIO6*%
%TO.N,unconnected-(U1-SD_CLK{slash}GPIO6-Pad20)*%
X198496320Y-85217280D03*
%TO.P,U1,21,SD_DATA0/GPIO7*%
%TO.N,unconnected-(U1-SD_DATA0{slash}GPIO7-Pad21)*%
X198496320Y-82677280D03*
%TO.P,U1,22,SD_DATA1/GPIO8*%
%TO.N,unconnected-(U1-SD_DATA1{slash}GPIO8-Pad22)*%
X198500000Y-80140000D03*
%TO.P,U1,23,MTDO/GPIO15/ADC2_CH3*%
%TO.N,Net-(JP4-A)*%
X198500000Y-77600000D03*
%TO.P,U1,24,ADC2_CH2/GPIO2*%
%TO.N,unconnected-(U1-ADC2_CH2{slash}GPIO2-Pad24)*%
X198500000Y-75060000D03*
%TO.P,U1,25,GPIO0/BOOT/ADC2_CH1*%
%TO.N,unconnected-(U1-GPIO0{slash}BOOT{slash}ADC2_CH1-Pad25)*%
X198500000Y-72520000D03*
%TO.P,U1,26,ADC2_CH0/GPIO4*%
%TO.N,Net-(U1-ADC2_CH0{slash}GPIO4)*%
X198500000Y-69980000D03*
%TO.P,U1,27,GPIO16*%
%TO.N,Net-(JP6-B)*%
X198500000Y-67440000D03*
%TO.P,U1,28,GPIO17*%
%TO.N,Net-(JP7-B)*%
X198500000Y-64900000D03*
%TO.P,U1,29,GPIO5*%
%TO.N,unconnected-(U1-GPIO5-Pad29)*%
X198500000Y-62360000D03*
%TO.P,U1,30,GPIO18*%
%TO.N,Net-(JP8-B)*%
X198500000Y-59820000D03*
%TO.P,U1,31,GPIO19*%
%TO.N,Net-(JP9-B)*%
X198500000Y-57280000D03*
%TO.P,U1,32,GND*%
%TO.N,Net-(J1-Pin_2)*%
X198500000Y-54740000D03*
%TO.P,U1,33,GPIO21*%
%TO.N,Net-(U1-GPIO21)*%
X198500000Y-52200000D03*
%TO.P,U1,34,U0RXD/GPIO3*%
%TO.N,unconnected-(U1-U0RXD{slash}GPIO3-Pad34)*%
X198500000Y-49660000D03*
%TO.P,U1,35,U0TXD/GPIO1*%
%TO.N,unconnected-(U1-U0TXD{slash}GPIO1-Pad35)*%
X198500000Y-47120000D03*
%TO.P,U1,36,GPIO22*%
%TO.N,Net-(U1-GPIO22)*%
X198500000Y-44580000D03*
%TO.P,U1,37,GPIO23*%
%TO.N,unconnected-(U1-GPIO23-Pad37)*%
X198500000Y-42040000D03*
%TO.P,U1,38,GND*%
%TO.N,Net-(J1-Pin_2)*%
X198500000Y-39500000D03*
%TD*%
D28*
%TO.N,Net-(U1-SENSOR_VP{slash}GPIO36{slash}ADC1_CH0)*%
X176000000Y-88000000D03*
%TO.N,Net-(U1-ADC2_CH0{slash}GPIO4)*%
X181000000Y-61000000D03*
X181000000Y-78000000D03*
%TD*%
D29*
%TO.N,Net-(J1-Pin_2)*%
X205000000Y-115000000D02*
X205000000Y-99000000D01*
X203325000Y-116675000D02*
X205000000Y-115000000D01*
X199625000Y-116675000D02*
X203325000Y-116675000D01*
%TO.N,Net-(J1-Pin_1)*%
X173100000Y-39500000D02*
X176500000Y-39500000D01*
X187000000Y-95000000D02*
X187000000Y-98000000D01*
X179000000Y-42000000D02*
X179000000Y-83000000D01*
D30*
X162500000Y-98000000D02*
X162500000Y-97500000D01*
D29*
X168500000Y-39500000D02*
X173100000Y-39500000D01*
X162500000Y-97500000D02*
X165000000Y-95000000D01*
X176500000Y-39500000D02*
X179000000Y-42000000D01*
X167000000Y-41000000D02*
X168500000Y-39500000D01*
D30*
X164500000Y-59000000D02*
X164500000Y-57500000D01*
D29*
X165000000Y-95000000D02*
X187000000Y-95000000D01*
X167000000Y-55000000D02*
X167000000Y-41000000D01*
X179000000Y-83000000D02*
X187000000Y-91000000D01*
D30*
X164500000Y-57500000D02*
X167000000Y-55000000D01*
D29*
X187000000Y-91000000D02*
X187000000Y-95000000D01*
D30*
%TO.N,Net-(J5-Pin_4)*%
X165500000Y-66500000D02*
X164500000Y-66500000D01*
X169000000Y-59000000D02*
X169000000Y-63000000D01*
X169000000Y-63000000D02*
X165500000Y-66500000D01*
X173100000Y-57280000D02*
X170720000Y-57280000D01*
X170720000Y-57280000D02*
X169000000Y-59000000D01*
%TO.N,Net-(J5-Pin_3)*%
X164500000Y-64000000D02*
X165000000Y-64000000D01*
X167000000Y-58000000D02*
X170260000Y-54740000D01*
X170260000Y-54740000D02*
X173100000Y-54740000D01*
X165000000Y-64000000D02*
X167000000Y-62000000D01*
X167000000Y-62000000D02*
X167000000Y-58000000D01*
%TO.N,Net-(J5-Pin_5)*%
X171000000Y-65000000D02*
X171000000Y-64000000D01*
X164500000Y-69000000D02*
X167000000Y-69000000D01*
X167000000Y-69000000D02*
X171000000Y-65000000D01*
X171000000Y-64000000D02*
X172640000Y-62360000D01*
D31*
%TO.N,Net-(D1-K)*%
X171000000Y-91000000D02*
X153000000Y-91000000D01*
X173100000Y-85220000D02*
X172780000Y-85220000D01*
X171000000Y-87000000D02*
X171000000Y-91000000D01*
X153000000Y-91000000D02*
X152000000Y-91000000D01*
X152000000Y-91000000D02*
X147000000Y-86000000D01*
X140000000Y-86000000D02*
X147000000Y-86000000D01*
X153000000Y-88080000D02*
X153000000Y-91000000D01*
X172780000Y-85220000D02*
X171000000Y-87000000D01*
D30*
%TO.N,Net-(J17-Pin_1)*%
X157850000Y-81850000D02*
X162920000Y-81850000D01*
D31*
X133000000Y-81000000D02*
X133000000Y-62000000D01*
X133000000Y-62000000D02*
X140000000Y-55000000D01*
X155000000Y-55000000D02*
X140000000Y-55000000D01*
D30*
X133000000Y-78000000D02*
X137000000Y-74000000D01*
X154000000Y-74000000D02*
X157000000Y-77000000D01*
X157000000Y-77000000D02*
X157000000Y-81000000D01*
X137000000Y-74000000D02*
X154000000Y-74000000D01*
X157000000Y-81000000D02*
X157850000Y-81850000D01*
D31*
X133000000Y-81000000D02*
X133000000Y-78000000D01*
D30*
%TO.N,Net-(U1-GPIO21)*%
X202000000Y-111000000D02*
X202000000Y-103000000D01*
X194000000Y-85000000D02*
X185000000Y-76000000D01*
X201425000Y-111575000D02*
X202000000Y-111000000D01*
X194000000Y-95000000D02*
X202000000Y-103000000D01*
X188800000Y-52200000D02*
X198500000Y-52200000D01*
X199625000Y-111575000D02*
X201425000Y-111575000D01*
X194000000Y-95000000D02*
X194000000Y-85000000D01*
X185000000Y-76000000D02*
X185000000Y-56000000D01*
X185000000Y-56000000D02*
X188800000Y-52200000D01*
%TO.N,Net-(U1-GPIO22)*%
X191950000Y-106050000D02*
X192000000Y-106000000D01*
X183000000Y-52000000D02*
X190420000Y-44580000D01*
X192000000Y-87000000D02*
X183000000Y-78000000D01*
X183000000Y-78000000D02*
X183000000Y-52000000D01*
X197125000Y-114175000D02*
X191950000Y-109000000D01*
X192000000Y-106000000D02*
X192000000Y-87000000D01*
X191950000Y-109000000D02*
X191950000Y-106050000D01*
X190420000Y-44580000D02*
X198500000Y-44580000D01*
D31*
%TO.N,Net-(D1-A)*%
X150080000Y-77920000D02*
X147000000Y-81000000D01*
X153000000Y-77920000D02*
X150080000Y-77920000D01*
D30*
%TO.N,Net-(U1-SENSOR_VP{slash}GPIO36{slash}ADC1_CH0)*%
X176000000Y-46000000D02*
X174580000Y-44580000D01*
X174580000Y-44580000D02*
X173100000Y-44580000D01*
X176000000Y-88000000D02*
X176000000Y-46000000D01*
%TO.N,Net-(Q1-B)*%
X147000000Y-107000000D02*
X182000000Y-107000000D01*
X138000000Y-92270000D02*
X139300000Y-92270000D01*
X182000000Y-107000000D02*
X195000000Y-120000000D01*
X141000000Y-101000000D02*
X147000000Y-107000000D01*
X195000000Y-124490000D02*
X197510000Y-127000000D01*
X139300000Y-92270000D02*
X141000000Y-93970000D01*
X195000000Y-120000000D02*
X195000000Y-124490000D01*
%TO.N,Net-(U1-ADC2_CH0{slash}GPIO4)*%
X181000000Y-61000000D02*
X181000000Y-78000000D01*
%TO.N,Net-(Q1-B)*%
X141000000Y-93970000D02*
X141000000Y-101000000D01*
%TD*%
M02*
